#!OML:ASF E:\Steps\Project 1\Capture day 1\Session 2\Subject.ASF
:FULLY-SPECIFIED
:DEGREES
361
root 12.4902 18.8602 7.62223 -153.486 6.10236 177.307
lowerback -30.6008 -2.65333 -5.59596
upperback -4.70946 -0.125415 -0.618749
thorax 10.7734 0.354721 2.41991
lowerneck -3.32419 -2.55033 1.17727
upperneck 5.8163 -3.45921 0.642918
head 2.39165 -1.65116 -0.101994
rclavicle 7.21837e-015 1.27222e-014
rhumerus -33.5701 -20.1115 -78.5272
rradius 19.3118
rwrist 8.53838
rhand -8.95522 -49.4494
rfingers 7.12502
rthumb 16.9895 -78.7264
lclavicle 7.21837e-015 1.27222e-014
lhumerus -26.6669 4.13231 85.8731
lradius 18.1854
lwrist -8.19233
lhand -23.9245 -14.4102
lfingers 7.12502
lthumb 2.55029 15.5543
rfemur -21.5665 4.86032 21.3974
rtibia 6.07722
rfoot -20.0654 -1.88248
rtoes -13.1017
lfemur -23.4901 -7.79464 -21.9673
ltibia 8.75578
lfoot -8.78017 -4.43031
ltoes -41.0167
362
root 12.4937 18.8588 7.61935 -153.401 5.9555 177.292
lowerback -30.415 -2.71354 -5.59385
upperback -5.23558 -0.199054 -0.717724
thorax 10.888 0.329401 2.4574
lowerneck -3.51932 -2.64352 1.45662
upperneck 5.94764 -3.59039 0.39783
head 2.46066 -1.71594 -0.235491
rclavicle -1.55549e-014 3.10104e-014
rhumerus -33.459 -19.2934 -79.0024
rradius 20.0193
rwrist 7.96449
rhand -7.73233 -51.1026
rfingers 7.12502
rthumb 18.1664 -80.2743
lclavicle -1.55549e-014 3.10104e-014
lhumerus -26.4986 2.55229 86.5485
lradius 18.8792
lwrist -7.29474
lhand -23.7921 -14.3569
lfingers 7.12502
lthumb 2.67818 15.606
rfemur -21.5786 4.75471 21.4381
rtibia 5.9671
rfoot -20.0395 -2.02288
rtoes -13.2033
lfemur -23.5827 -7.74859 -21.9513
ltibia 8.7669
lfoot -8.73362 -4.63666
ltoes -41.0249
363
root 12.4974 18.857 7.61618 -153.311 5.87676 177.239
lowerback -30.7121 -2.77798 -5.71327
upperback -4.86584 -0.191262 -0.647247
thorax 10.6513 0.348753 2.4291
lowerneck -3.59619 -2.86733 1.5149
upperneck 5.73989 -3.90657 0.555701
head 2.40609 -1.87083 -0.204304
rclavicle 1.30825e-014 2.38542e-015
rhumerus -33.3204 -18.7235 -79.3658
rradius 20.4296
rwrist 6.5638
rhand -8.76796 -49.6077
rfingers 7.12502
rthumb 17.1698 -78.8691
lclavicle 1.30825e-014 2.38542e-015
lhumerus -26.2893 1.0072 87.2153
lradius 19.6433
lwrist -6.43088
lhand -23.7206 -14.2968
lfingers 7.12502
lthumb 2.74715 15.6653
rfemur -21.6737 5.00133 21.3446
rtibia 5.98451
rfoot -20.0776 -2.33086
rtoes -13.1279
lfemur -23.6791 -7.76166 -21.9726
ltibia 8.77444
lfoot -8.68371 -4.73775
ltoes -40.8703
364
root 12.4992 18.8551 7.60995 -153.233 5.82394 177.199
lowerback -30.8816 -2.80152 -5.81851
upperback -4.88129 -0.160561 -0.626482
thorax 10.7029 0.365522 2.51873
lowerneck -3.64333 -3.00441 1.41951
upperneck 5.4022 -4.09754 0.712259
head 2.30737 -1.96982 -0.141715
rclavicle 5.95112e-015 -8.74653e-015
rhumerus -33.1387 -17.9206 -79.7834
rradius 21.132
rwrist 5.1386
rhand -9.0956 -49.6499
rfingers 7.12502
rthumb 16.8544 -78.9385
lclavicle 5.95112e-015 -8.74653e-015
lhumerus -25.9979 -0.0894616 87.813
lradius 20.2739
lwrist -6.09552
lhand -23.7008 -14.325
lfingers 7.12502
lthumb 2.76631 15.6368
rfemur -21.8203 5.09554 21.2861
rtibia 6.16257
rfoot -20.1955 -2.47458
rtoes -13.1821
lfemur -23.7131 -7.79683 -21.9971
ltibia 8.72179
lfoot -8.63366 -4.74521
ltoes -40.4915
365
root 12.5005 18.8535 7.60352 -153.184 5.65423 177.17
lowerback -30.9408 -2.86794 -5.88071
upperback -4.92845 -0.208936 -0.596493
thorax 10.6791 0.350263 2.56631
lowerneck -3.73523 -2.98908 1.42132
upperneck 5.15535 -4.079 0.647106
head 2.24111 -1.96779 -0.160943
rclavicle -1.33186e-014 -3.97569e-016
rhumerus -33.0234 -17.0827 -80.1807
rradius 21.9164
rwrist 3.79835
rhand -9.04752 -49.8965
rfingers 7.12502
rthumb 16.9007 -79.1811
lclavicle -1.33186e-014 -3.97569e-016
lhumerus -25.735 -0.920767 88.3124
lradius 20.8975
lwrist -5.77352
lhand -23.6214 -14.295
lfingers 7.12502
lthumb 2.84304 15.6658
rfemur -21.855 4.67404 21.3628
rtibia 6.20791
rfoot -20.2614 -2.19656
rtoes -12.8871
lfemur -23.7523 -7.79967 -22.0094
ltibia 8.72794
lfoot -8.6502 -4.88823
ltoes -40.3594
366
root 12.5041 18.8529 7.59741 -153.171 5.44892 177.149
lowerback -30.9865 -2.93608 -5.91492
upperback -4.96981 -0.263616 -0.614711
thorax 10.6564 0.333177 2.54532
lowerneck -3.70823 -2.92792 1.43219
upperneck 4.85254 -4.00047 0.689498
head 2.13752 -1.93254 -0.143199
rclavicle -6.13748e-015 4.09496e-014
rhumerus -32.9083 -17.0014 -80.3272
rradius 22.4207
rwrist 3.28556
rhand -8.9715 -49.9398
rfingers 7.12502
rthumb 16.9739 -79.2182
lclavicle -6.13748e-015 4.09496e-014
lhumerus -25.5813 -1.9574 88.733
lradius 21.5764
lwrist -5.14136
lhand -23.7806 -14.4687
lfingers 7.12502
lthumb 2.6892 15.4941
rfemur -21.7947 4.55552 21.4106
rtibia 6.17285
rfoot -20.3273 -2.24055
rtoes -12.6838
lfemur -23.7888 -7.77766 -22.0019
ltibia 8.78797
lfoot -8.65565 -5.14404
ltoes -40.2079
367
root 12.5088 18.8519 7.59398 -153.137 5.38756 177.157
lowerback -31.0302 -2.95279 -5.94853
upperback -5.06031 -0.24032 -0.658475
thorax 10.5721 0.359419 2.52583
lowerneck -3.53855 -2.82057 1.41784
upperneck 4.54672 -3.85359 0.720539
head 2.00818 -1.86382 -0.120482
rclavicle -3.89494e-015 3.97569e-014
rhumerus -32.884 -17.2901 -80.3182
rradius 22.743
rwrist 3.24516
rhand -8.77756 -50.1193
rfingers 7.12502
rthumb 17.1606 -79.3815
lclavicle -3.89494e-015 3.97569e-014
lhumerus -25.5546 -3.15553 89.1022
lradius 22.2021
lwrist -4.4614
lhand -23.868 -14.7464
lfingers 7.12502
lthumb 2.60488 15.2174
rfemur -21.839 4.91243 21.3683
rtibia 6.23155
rfoot -20.3984 -2.62233
rtoes -12.5572
lfemur -23.8109 -7.74937 -21.9589
ltibia 8.75383
lfoot -8.60112 -5.25891
ltoes -39.9461
368
root 12.5115 18.8513 7.59125 -153.136 5.37852 177.052
lowerback -30.9869 -2.99867 -6.07831
upperback -5.16465 -0.230937 -0.706771
thorax 10.4371 0.377663 2.54786
lowerneck -3.39723 -2.72752 1.37337
upperneck 4.40832 -3.72262 0.697124
head 1.93849 -1.80238 -0.112903
rclavicle -8.07563e-015 2.22639e-014
rhumerus -32.8893 -17.1916 -80.4274
rradius 23.2064
rwrist 2.83439
rhand -9.97525 -49.6405
rfingers 7.12502
rthumb 16.0075 -78.9991
lclavicle -8.07563e-015 2.22639e-014
lhumerus -25.5697 -4.18447 89.4606
lradius 22.8773
lwrist -3.85033
lhand -23.8184 -14.7773
lfingers 7.12502
lthumb 2.65276 15.1859
rfemur -21.8354 5.06387 21.2132
rtibia 6.22522
rfoot -20.4213 -2.82863
rtoes -12.613
lfemur -23.7796 -7.7966 -22.0599
ltibia 8.68408
lfoot -8.54523 -5.30247
ltoes -39.7345
369
root 12.5134 18.8525 7.58763 -153.184 5.27595 176.953
lowerback -30.9498 -3.06555 -6.19168
upperback -5.17016 -0.278769 -0.716206
thorax 10.419 0.354291 2.58089
lowerneck -3.31668 -2.65297 1.24365
upperneck 4.13683 -3.61952 0.803808
head 1.84077 -1.75472 -0.0511907
rclavicle 4.77704e-015 9.93923e-015
rhumerus -32.7137 -16.6814 -80.7182
rradius 23.7704
rwrist 1.92451
rhand -10.0723 -49.7194
rfingers 7.12502
rthumb 15.914 -79.0855
lclavicle 4.77704e-015 9.93923e-015
lhumerus -25.4428 -4.98625 89.7827
lradius 23.5287
lwrist -3.33833
lhand -23.9318 -14.9678
lfingers 7.12502
lthumb 2.54323 14.9968
rfemur -21.7229 4.97261 21.1416
rtibia 6.16295
rfoot -20.4256 -2.87721
rtoes -12.7254
lfemur -23.7484 -7.93474 -22.1401
ltibia 8.73031
lfoot -8.49177 -5.36456
ltoes -39.5602
370
root 12.5151 18.8535 7.57881 -153.315 5.21982 177.01
lowerback -30.9474 -3.05189 -6.15799
upperback -5.09307 -0.292322 -0.692291
thorax 10.5046 0.336243 2.58297
lowerneck -3.38211 -2.64274 1.24656
upperneck 3.87838 -3.60705 0.781065
head 1.76823 -1.75305 -0.0569995
rclavicle -3.4104e-015 -6.36111e-015
rhumerus -32.4722 -15.8951 -81.1085
rradius 24.3825
rwrist 0.895709
rhand -9.65005 -50.5763
rfingers 7.12502
rthumb 16.3206 -79.9095
lclavicle -3.4104e-015 -6.36111e-015
lhumerus -25.2123 -5.62154 90.0324
lradius 24.0657
lwrist -2.97947
lhand -23.9807 -15.0835
lfingers 7.12502
lthumb 2.49595 14.8817
rfemur -21.5038 4.91716 21.2442
rtibia 6.11758
rfoot -20.466 -2.82127
rtoes -12.5758
lfemur -23.5819 -8.14046 -22.0423
ltibia 8.77321
lfoot -8.51679 -5.15579
ltoes -39.711
371
root 12.5167 18.8541 7.56897 -153.438 5.15534 177.091
lowerback -30.9456 -3.02637 -6.08726
upperback -5.0453 -0.294837 -0.682574
thorax 10.5572 0.329208 2.55443
lowerneck -3.45531 -2.68062 1.30058
upperneck 3.72772 -3.66033 0.740021
head 1.73055 -1.78193 -0.0797957
rclavicle 2.46617e-015 -2.78299e-015
rhumerus -32.2993 -15.2286 -81.4467
rradius 25.0078
rwrist 0.0285557
rhand -9.29449 -52.0287
rfingers 7.12502
rthumb 16.6629 -81.3335
lclavicle 2.46617e-015 -2.78299e-015
lhumerus -25.0296 -6.32784 90.2482
lradius 24.5917
lwrist -2.56197
lhand -23.8454 -15.158
lfingers 7.12502
lthumb 2.62667 14.8056
rfemur -21.278 4.99335 21.3522
rtibia 6.03078
rfoot -20.5476 -2.97702
rtoes -12.9936
lfemur -23.4262 -8.35378 -21.9121
ltibia 8.84608
lfoot -8.69024 -5.00331
ltoes -39.8665
372
root 12.5216 18.8549 7.57064 -153.442 4.9507 177.106
lowerback -30.8632 -3.0929 -6.1227
upperback -5.09241 -0.370552 -0.665569
thorax 10.4767 0.300165 2.56424
lowerneck -3.37342 -2.65206 1.13821
upperneck 3.3992 -3.61975 0.995529
head 1.61854 -1.76197 0.0320142
rclavicle -1.05232e-014 2.90226e-014
rhumerus -32.1736 -14.9732 -81.6124
rradius 25.481
rwrist -0.47161
rhand -9.07513 -51.9224
rfingers 7.12502
rthumb 16.8741 -81.2093
lclavicle -1.05232e-014 2.90226e-014
lhumerus -24.9358 -7.01181 90.4262
lradius 25.1279
lwrist -2.20204
lhand -23.8588 -15.6431
lfingers 7.12502
lthumb 2.61372 14.3206
rfemur -21.2066 5.06549 21.4174
rtibia 5.91577
rfoot -20.6053 -3.38057
rtoes -14.0984
lfemur -23.5122 -8.40312 -21.8193
ltibia 8.99426
lfoot -8.78388 -5.35041
ltoes -39.8151
373
root 12.5273 18.8544 7.57418 -153.438 4.83326 177.115
lowerback -30.7851 -3.14174 -6.18862
upperback -5.13414 -0.414931 -0.647861
thorax 10.4018 0.283612 2.60258
lowerneck -3.42855 -2.65689 1.11048
upperneck 3.25396 -3.62594 1.0165
head 1.58255 -1.76674 0.043441
rclavicle 1.2424e-014 -1.35174e-014
rhumerus -32.025 -14.9338 -81.662
rradius 25.7906
rwrist -0.660526
rhand -8.9674 -50.4544
rfingers 7.12502
rthumb 16.9778 -79.7324
lclavicle 1.2424e-014 -1.35174e-014
lhumerus -24.8528 -7.5234 90.5936
lradius 25.6155
lwrist -2.04435
lhand -24.0664 -15.7809
lfingers 7.12502
lthumb 2.41319 14.1852
rfemur -21.1622 5.07791 21.4697
rtibia 5.81529
rfoot -20.6239 -3.58277
rtoes -14.786
lfemur -23.5766 -8.32625 -21.7662
ltibia 9.0384
lfoot -8.71857 -5.63649
ltoes -39.7514
374
root 12.5302 18.8525 7.57131 -153.378 4.78514 177.222
lowerback -30.8582 -3.12164 -6.10395
upperback -5.15236 -0.405627 -0.631631
thorax 10.4116 0.293806 2.57797
lowerneck -3.59802 -2.66821 1.28238
upperneck 3.36314 -3.64415 0.708669
head 1.63805 -1.77972 -0.0847583
rclavicle -2.83889e-015 -3.4191e-014
rhumerus -31.8334 -14.6069 -81.851
rradius 26.2825
rwrist -1.05432
rhand -8.76807 -51.6745
rfingers 7.12502
rthumb 17.1697 -80.936
lclavicle -2.83889e-015 -3.4191e-014
lhumerus -24.7433 -8.17537 90.7827
lradius 26.0696
lwrist -1.7675
lhand -24.2539 -15.7348
lfingers 7.12502
lthumb 2.23213 14.2333
rfemur -21.1653 5.10364 21.6125
rtibia 5.76006
rfoot -20.597 -3.49404
rtoes -14.0401
lfemur -23.6792 -8.28911 -21.6117
ltibia 9.10518
lfoot -8.67684 -5.5796
ltoes -39.3764
